G04 PROTEUS GERBER X2 FILE*
%TF.GenerationSoftware,Labcenter,Proteus,8.16-SP3-Build36097*%
%TF.CreationDate,2024-06-22T10:57:25+00:00*%
%TF.FileFunction,Copper,L1,Top*%
%TF.FilePolarity,Positive*%
%TF.Part,Single*%
%TF.SameCoordinates,{46920692-e9dd-4208-b897-880813824025}*%
%FSLAX45Y45*%
%MOMM*%
G01*
%TA.AperFunction,Conductor*%
%ADD10C,0.254000*%
%ADD11C,0.381000*%
%TA.AperFunction,ViaPad*%
%ADD12C,0.762000*%
%AMDIL003*
4,1,8,
-1.270000,0.457200,-0.965200,0.762000,0.965200,0.762000,1.270000,0.457200,1.270000,-0.457200,
0.965200,-0.762000,-0.965200,-0.762000,-1.270000,-0.457200,-1.270000,0.457200,
0*%
%TA.AperFunction,ComponentPad*%
%ADD13DIL003*%
%TA.AperFunction,ComponentPad*%
%ADD14C,1.778000*%
%TA.AperFunction,WasherPad*%
%ADD15C,1.397000*%
%TA.AperFunction,ComponentPad*%
%ADD16R,2.032000X2.032000*%
%TA.AperFunction,Profile*%
%ADD17C,0.203200*%
%TD.AperFunction*%
D10*
X+984000Y+2310000D02*
X+671000Y+2623000D01*
X-972000Y+2623000D01*
X-1067303Y+2718303D01*
X-1067303Y+3924500D01*
X-1166803Y+4024000D01*
X-2024000Y+4024000D01*
X-19500Y+813000D02*
X-273500Y+559000D01*
X-4009000Y+559000D01*
X-4500000Y+1050000D01*
D11*
X-4500000Y-750000D02*
X-4718500Y-531500D01*
X-4718500Y+1384500D01*
X-4619000Y+1484000D01*
X-2024000Y+1484000D01*
D10*
X+2000000Y+2056000D02*
X+1492000Y+2056000D01*
X+2000000Y+2056000D02*
X+2381000Y+2056000D01*
X+1500000Y-3250000D02*
X+1251000Y-3001000D01*
X+249000Y-3001000D01*
X+0Y-3250000D01*
X-500000Y+4024000D02*
X-500000Y+4000000D01*
X-250000Y+4000000D01*
X+1006846Y+2743154D01*
X+984000Y+2691000D01*
X-2242000Y+686000D02*
X-2242000Y+936000D01*
X-2178000Y+1000000D01*
X+1452000Y+1000000D01*
X+1492000Y+1040000D01*
X+1187000Y+1317000D02*
X+1631500Y+1317000D01*
X+2104000Y+1317000D01*
X+2381000Y+1040000D01*
X-146500Y+1317000D02*
X+0Y+1317000D01*
X+1187000Y+1317000D01*
X+1500000Y-3250000D02*
X+2619000Y-3250000D01*
X-500000Y+4532000D02*
X-364610Y+4532000D01*
X-364615Y+4532005D01*
X+984000Y+3072000D01*
X-2024000Y+1230000D02*
X-1691500Y+1230000D01*
X-1581490Y+1340010D01*
X-1581490Y+3483698D01*
X-1734610Y+3636818D01*
X-4481773Y+3636818D01*
X-5004184Y+3114407D01*
X-5004184Y-495816D01*
X-5000000Y-500000D01*
X-4550000Y-950000D01*
X-4500000Y-950000D01*
X-2024000Y+1992000D02*
X-1931908Y+1992000D01*
X-1806764Y+1866856D01*
X-1806764Y+1447236D01*
X-2024000Y+1230000D01*
X+3322250Y+1357750D02*
X+4004000Y+676000D01*
X+4004000Y+500000D01*
X+2381000Y+2056000D02*
X+2624000Y+2056000D01*
X+3322250Y+1357750D01*
X+3322250Y+892250D01*
X+1700000Y-730000D01*
X-2745840Y-730000D01*
X-2755840Y-720000D01*
X-4390000Y-720000D01*
D12*
X-19500Y+813000D03*
X-2242000Y+686000D03*
X-146500Y+1317000D03*
D13*
X-500000Y+1230000D03*
X-500000Y+1484000D03*
X-500000Y+1738000D03*
X-500000Y+1992000D03*
X-500000Y+2246000D03*
X-500000Y+2500000D03*
X-500000Y+2754000D03*
X-500000Y+3008000D03*
X-500000Y+3262000D03*
X-500000Y+3516000D03*
X-500000Y+3770000D03*
X-500000Y+4024000D03*
X-500000Y+4278000D03*
X-500000Y+4532000D03*
X-500000Y+4786000D03*
X-2024000Y+4786000D03*
X-2024000Y+4532000D03*
X-2024000Y+4278000D03*
X-2024000Y+4024000D03*
X-2024000Y+3770000D03*
X-2024000Y+3516000D03*
X-2024000Y+3262000D03*
X-2024000Y+3008000D03*
X-2024000Y+2754000D03*
X-2024000Y+2500000D03*
X-2024000Y+2246000D03*
X-2024000Y+1992000D03*
X-2024000Y+1738000D03*
X-2024000Y+1484000D03*
X-2024000Y+1230000D03*
D14*
X+3000000Y-3250000D03*
X+2619000Y-3250000D03*
X+1119000Y-3250000D03*
X+1500000Y-3250000D03*
X-381000Y-3250000D03*
X+0Y-3250000D03*
D15*
X-4500000Y-950000D03*
X-4500000Y-750000D03*
X-4500000Y+1050000D03*
X-4500000Y+1250000D03*
X-4500000Y+2050000D03*
X-4500000Y+2250000D03*
D16*
X+3750000Y+500000D03*
X+4004000Y+500000D03*
D14*
X+984000Y+2310000D03*
X+2000000Y+2310000D03*
X+2000000Y+1040000D03*
X+2000000Y+2056000D03*
X+1492000Y+1040000D03*
X+1492000Y+2056000D03*
X+984000Y+3072000D03*
X+2000000Y+3072000D03*
X+984000Y+2691000D03*
X+2000000Y+2691000D03*
X+2381000Y+1040000D03*
X+2381000Y+2056000D03*
D17*
X-5250000Y-4750000D02*
X+4750000Y-4750000D01*
X+4750000Y+5250000D01*
X-5250000Y+5250000D01*
X-5250000Y-4750000D01*
M02*
