G04 PROTEUS GERBER X2 FILE*
%TF.GenerationSoftware,Labcenter,Proteus,8.16-SP3-Build36097*%
%TF.CreationDate,2024-06-22T10:57:25+00:00*%
%TF.FileFunction,Copper,L2,Bot*%
%TF.FilePolarity,Positive*%
%TF.Part,Single*%
%TF.SameCoordinates,{46920692-e9dd-4208-b897-880813824025}*%
%FSLAX45Y45*%
%MOMM*%
G01*
%TA.AperFunction,Conductor*%
%ADD10C,0.254000*%
%TA.AperFunction,ViaPad*%
%ADD12C,0.762000*%
%AMDIL003*
4,1,8,
-1.270000,0.457200,-0.965200,0.762000,0.965200,0.762000,1.270000,0.457200,1.270000,-0.457200,
0.965200,-0.762000,-0.965200,-0.762000,-1.270000,-0.457200,-1.270000,0.457200,
0*%
%TA.AperFunction,ComponentPad*%
%ADD13DIL003*%
%TA.AperFunction,ComponentPad*%
%ADD14C,1.778000*%
%TA.AperFunction,WasherPad*%
%ADD15C,1.397000*%
%TA.AperFunction,ComponentPad*%
%ADD16R,2.032000X2.032000*%
%TA.AperFunction,Profile*%
%ADD17C,0.203200*%
%TD.AperFunction*%
D10*
X-2242000Y+686000D02*
X-2242000Y+3516000D01*
X-2024000Y+3516000D01*
X-2242000Y+686000D02*
X-2242000Y-1389000D01*
X-381000Y-3250000D01*
X+1187000Y+622500D02*
X-1041909Y+622500D01*
X-1105409Y+686000D01*
X-1105409Y+3649409D01*
X-1226000Y+3770000D01*
X-2024000Y+3770000D01*
X+1187000Y+622500D02*
X+1187000Y+432000D01*
X+1119000Y+364000D01*
X+1119000Y-3250000D01*
X+1187000Y+622500D02*
X+1187000Y+682000D01*
X+1642000Y+682000D01*
X+2000000Y+1040000D01*
X-83000Y+1575000D02*
X-83000Y+3706500D01*
X-146500Y+3770000D01*
X-500000Y+3770000D01*
X-83000Y+1575000D02*
X-19500Y+1511500D01*
X-19500Y+813000D01*
X-146500Y+1448000D02*
X-146500Y+1511500D01*
X-83000Y+1575000D01*
X-146500Y+1317000D02*
X-146500Y+1448000D01*
X-500000Y+4024000D02*
X-500000Y+3897000D01*
X-4619000Y+3897000D01*
X-4718500Y+3797500D01*
X-4718500Y+2268500D01*
X-4500000Y+2050000D01*
X+2000000Y+2310000D02*
X+2000000Y+2691000D01*
X+2000000Y+2310000D02*
X+2000000Y+2056000D01*
X-4500000Y+1250000D02*
X-4718500Y+1031500D01*
X-4718500Y-731500D01*
X-4500000Y-950000D01*
X+984000Y+2310000D02*
X+1583545Y+1710455D01*
X+2928045Y+1710455D01*
X+3000000Y+1638500D01*
X+3000000Y-3250000D01*
X+3750000Y+500000D02*
X+3500000Y+2500000D01*
X+3250000Y+3000000D01*
X+2000000Y+3072000D01*
X-1635655Y+1301455D02*
X-1635655Y+1301456D01*
X-1750000Y+1750000D02*
X-1915800Y+1915800D01*
X-2024000Y+1992000D01*
X-1992000Y+1992000D01*
X-1915800Y+1915800D01*
X-1750000Y+1750000D02*
X-1734000Y+1520000D01*
X-1635655Y+1301456D01*
X-1635655Y+1301455D02*
X-1500000Y+1000000D01*
X+0Y-1338000D01*
X+0Y-3250000D01*
X-4500000Y+2250000D02*
X-4000000Y+1750000D01*
X-4000000Y+1484000D01*
X-4500000Y+1250000D01*
D12*
X-19500Y+813000D03*
X-2242000Y+686000D03*
X-146500Y+1317000D03*
D13*
X-500000Y+1230000D03*
X-500000Y+1484000D03*
X-500000Y+1738000D03*
X-500000Y+1992000D03*
X-500000Y+2246000D03*
X-500000Y+2500000D03*
X-500000Y+2754000D03*
X-500000Y+3008000D03*
X-500000Y+3262000D03*
X-500000Y+3516000D03*
X-500000Y+3770000D03*
X-500000Y+4024000D03*
X-500000Y+4278000D03*
X-500000Y+4532000D03*
X-500000Y+4786000D03*
X-2024000Y+4786000D03*
X-2024000Y+4532000D03*
X-2024000Y+4278000D03*
X-2024000Y+4024000D03*
X-2024000Y+3770000D03*
X-2024000Y+3516000D03*
X-2024000Y+3262000D03*
X-2024000Y+3008000D03*
X-2024000Y+2754000D03*
X-2024000Y+2500000D03*
X-2024000Y+2246000D03*
X-2024000Y+1992000D03*
X-2024000Y+1738000D03*
X-2024000Y+1484000D03*
X-2024000Y+1230000D03*
D14*
X+3000000Y-3250000D03*
X+2619000Y-3250000D03*
X+1119000Y-3250000D03*
X+1500000Y-3250000D03*
X-381000Y-3250000D03*
X+0Y-3250000D03*
D15*
X-4500000Y-950000D03*
X-4500000Y-750000D03*
X-4500000Y+1050000D03*
X-4500000Y+1250000D03*
X-4500000Y+2050000D03*
X-4500000Y+2250000D03*
D16*
X+3750000Y+500000D03*
X+4004000Y+500000D03*
D14*
X+984000Y+2310000D03*
X+2000000Y+2310000D03*
X+2000000Y+1040000D03*
X+2000000Y+2056000D03*
X+1492000Y+1040000D03*
X+1492000Y+2056000D03*
X+984000Y+3072000D03*
X+2000000Y+3072000D03*
X+984000Y+2691000D03*
X+2000000Y+2691000D03*
X+2381000Y+1040000D03*
X+2381000Y+2056000D03*
D17*
X-5250000Y-4750000D02*
X+4750000Y-4750000D01*
X+4750000Y+5250000D01*
X-5250000Y+5250000D01*
X-5250000Y-4750000D01*
M02*
