G04 PROTEUS GERBER X2 FILE*
%TF.GenerationSoftware,Labcenter,Proteus,8.16-SP3-Build36097*%
%TF.CreationDate,2024-06-22T10:57:25+00:00*%
%TF.FileFunction,AssemblyDrawing,Top*%
%TF.FilePolarity,Positive*%
%TF.Part,Single*%
%TF.SameCoordinates,{46920692-e9dd-4208-b897-880813824025}*%
%FSLAX45Y45*%
%MOMM*%
G01*
%TA.AperFunction,Profile*%
%ADD17C,0.203200*%
%TA.AperFunction,Material*%
%ADD18C,0.203200*%
%ADD24C,1.016000*%
%ADD25C,0.801370*%
%ADD26C,0.711200*%
%ADD27C,0.165930*%
%ADD70C,0.152400*%
%ADD28C,0.558800*%
%ADD29C,0.047660*%
%ADD72C,0.812800*%
%ADD73C,0.190500*%
%ADD30C,0.110230*%
%TD.AperFunction*%
D17*
X-5250000Y-4750000D02*
X+4750000Y-4750000D01*
X+4750000Y+5250000D01*
X-5250000Y+5250000D01*
X-5250000Y-4750000D01*
D18*
X-2151000Y+1092840D02*
X-373000Y+1092840D01*
X-373000Y+4923160D01*
X-2151000Y+4923160D01*
X-2151000Y+1092840D01*
D24*
X-500000Y+1230000D02*
X-500000Y+1230000D01*
D25*
X-1101726Y+1659514D02*
X-1021589Y+1749668D01*
X-1021589Y+2110284D01*
X-1101726Y+2200438D01*
X-1181863Y+2200438D01*
X-1262000Y+2110284D01*
X-1262000Y+1749668D01*
X-1342137Y+1659514D01*
X-1422274Y+1659514D01*
X-1502411Y+1749668D01*
X-1502411Y+2110284D01*
X-1422274Y+2200438D01*
X-1502411Y+2470901D02*
X-1502411Y+2831517D01*
X-1502411Y+2651209D02*
X-1021589Y+2651209D01*
X-1021589Y+2470901D02*
X-1021589Y+2831517D01*
X-1021589Y+3101980D02*
X-1502411Y+3101980D01*
X-1262000Y+3372442D01*
X-1502411Y+3642904D01*
X-1021589Y+3642904D01*
X-1422274Y+3913367D02*
X-1502411Y+4003521D01*
X-1502411Y+4273983D01*
X-1422274Y+4364137D01*
X-1342137Y+4364137D01*
X-1262000Y+4273983D01*
X-1262000Y+4003521D01*
X-1181863Y+3913367D01*
X-1021589Y+3913367D01*
X-1021589Y+4364137D01*
D18*
X+2467474Y-3592026D02*
X+3151526Y-3592026D01*
X+3151526Y-2907974D01*
X+2467474Y-2907974D01*
X+2467474Y-3592026D01*
D26*
X+3000000Y-3250000D02*
X+3000000Y-3250000D01*
D27*
X+2666177Y-3548678D02*
X+2765737Y-3548678D01*
X+2765737Y-3436674D01*
X+2765737Y-3399339D02*
X+2666177Y-3399339D01*
X+2666177Y-3324670D01*
X+2699364Y-3287335D01*
X+2732550Y-3287335D01*
X+2765737Y-3324670D01*
X+2765737Y-3399339D01*
X+2765737Y-3250000D02*
X+2666177Y-3250000D01*
X+2666177Y-3156664D01*
X+2682770Y-3137996D01*
X+2699364Y-3137996D01*
X+2715957Y-3156664D01*
X+2715957Y-3250000D01*
X+2715957Y-3156664D02*
X+2732550Y-3137996D01*
X+2765737Y-3137996D01*
X+2699364Y-3063327D02*
X+2666177Y-3025992D01*
X+2765737Y-3025992D01*
D18*
X+967474Y-3592026D02*
X+1651526Y-3592026D01*
X+1651526Y-2907974D01*
X+967474Y-2907974D01*
X+967474Y-3592026D01*
D26*
X+1119000Y-3250000D02*
X+1119000Y-3250000D01*
D27*
X+1353263Y-3548678D02*
X+1452823Y-3548678D01*
X+1452823Y-3436674D01*
X+1452823Y-3399339D02*
X+1353263Y-3399339D01*
X+1353263Y-3324670D01*
X+1386450Y-3287335D01*
X+1419636Y-3287335D01*
X+1452823Y-3324670D01*
X+1452823Y-3399339D01*
X+1452823Y-3250000D02*
X+1353263Y-3250000D01*
X+1353263Y-3156664D01*
X+1369856Y-3137996D01*
X+1386450Y-3137996D01*
X+1403043Y-3156664D01*
X+1403043Y-3250000D01*
X+1403043Y-3156664D02*
X+1419636Y-3137996D01*
X+1452823Y-3137996D01*
X+1369856Y-3081994D02*
X+1353263Y-3063327D01*
X+1353263Y-3007325D01*
X+1369856Y-2988657D01*
X+1386450Y-2988657D01*
X+1403043Y-3007325D01*
X+1403043Y-3063327D01*
X+1419636Y-3081994D01*
X+1452823Y-3081994D01*
X+1452823Y-2988657D01*
D18*
X-532526Y-3592026D02*
X+151526Y-3592026D01*
X+151526Y-2907974D01*
X-532526Y-2907974D01*
X-532526Y-3592026D01*
D26*
X-381000Y-3250000D02*
X-381000Y-3250000D01*
D27*
X-146737Y-3548678D02*
X-47177Y-3548678D01*
X-47177Y-3436674D01*
X-47177Y-3399339D02*
X-146737Y-3399339D01*
X-146737Y-3324670D01*
X-113550Y-3287335D01*
X-80364Y-3287335D01*
X-47177Y-3324670D01*
X-47177Y-3399339D01*
X-47177Y-3250000D02*
X-146737Y-3250000D01*
X-146737Y-3156664D01*
X-130144Y-3137996D01*
X-113550Y-3137996D01*
X-96957Y-3156664D01*
X-96957Y-3250000D01*
X-96957Y-3156664D02*
X-80364Y-3137996D01*
X-47177Y-3137996D01*
X-130144Y-3081994D02*
X-146737Y-3063327D01*
X-146737Y-3007325D01*
X-130144Y-2988657D01*
X-113550Y-2988657D01*
X-96957Y-3007325D01*
X-80364Y-2988657D01*
X-63770Y-2988657D01*
X-47177Y-3007325D01*
X-47177Y-3063327D01*
X-63770Y-3081994D01*
X-96957Y-3044659D02*
X-96957Y-3007325D01*
D70*
X-4625400Y-1124320D02*
X-4373940Y-1124320D01*
X-4373940Y-575680D01*
X-4625400Y-575680D01*
X-4625400Y-1124320D01*
X-4373940Y-1124320D01*
X-4373940Y-575680D01*
X-4625400Y-575680D01*
X-4625400Y-1124320D01*
D28*
X-4500000Y-950000D02*
X-4500000Y-950000D01*
D29*
X-4485369Y-895213D02*
X-4513970Y-895213D01*
X-4513970Y-868400D01*
X-4509203Y-863038D01*
X-4504436Y-863038D01*
X-4499670Y-868400D01*
X-4494903Y-863038D01*
X-4490136Y-863038D01*
X-4485369Y-868400D01*
X-4485369Y-895213D01*
X-4499670Y-895213D02*
X-4499670Y-868400D01*
X-4485369Y-852312D02*
X-4504436Y-852312D01*
X-4513970Y-841587D01*
X-4513970Y-830862D01*
X-4504436Y-820137D01*
X-4485369Y-820137D01*
X-4494903Y-852312D02*
X-4494903Y-820137D01*
X-4513970Y-809411D02*
X-4513970Y-777236D01*
X-4513970Y-793324D02*
X-4485369Y-793324D01*
X-4513970Y-766510D02*
X-4513970Y-734335D01*
X-4513970Y-750423D02*
X-4485369Y-750423D01*
X-4485369Y-691434D02*
X-4485369Y-723609D01*
X-4513970Y-723609D01*
X-4513970Y-691434D01*
X-4499670Y-723609D02*
X-4499670Y-702159D01*
X-4485369Y-680708D02*
X-4513970Y-680708D01*
X-4513970Y-653895D01*
X-4509203Y-648533D01*
X-4504436Y-648533D01*
X-4499670Y-653895D01*
X-4499670Y-680708D01*
X-4499670Y-653895D02*
X-4494903Y-648533D01*
X-4485369Y-648533D01*
X-4513970Y-605632D02*
X-4485369Y-637807D01*
X-4513970Y-637807D02*
X-4499670Y-621720D01*
D70*
X-4625400Y+875680D02*
X-4373940Y+875680D01*
X-4373940Y+1424320D01*
X-4625400Y+1424320D01*
X-4625400Y+875680D01*
X-4373940Y+875680D01*
X-4373940Y+1424320D01*
X-4625400Y+1424320D01*
X-4625400Y+875680D01*
D28*
X-4500000Y+1050000D02*
X-4500000Y+1050000D01*
D29*
X-4490136Y+1104787D02*
X-4485369Y+1110149D01*
X-4485369Y+1131600D01*
X-4490136Y+1136962D01*
X-4494903Y+1136962D01*
X-4499670Y+1131600D01*
X-4499670Y+1110149D01*
X-4504436Y+1104787D01*
X-4509203Y+1104787D01*
X-4513970Y+1110149D01*
X-4513970Y+1131600D01*
X-4509203Y+1136962D01*
X-4513970Y+1147688D02*
X-4485369Y+1147688D01*
X-4499670Y+1163775D01*
X-4485369Y+1179863D01*
X-4513970Y+1179863D01*
X-4513970Y+1195951D02*
X-4513970Y+1217402D01*
X-4513970Y+1206676D02*
X-4485369Y+1206676D01*
X-4485369Y+1195951D02*
X-4485369Y+1217402D01*
X-4513970Y+1233490D02*
X-4513970Y+1265665D01*
X-4513970Y+1249577D02*
X-4485369Y+1249577D01*
X-4490136Y+1308566D02*
X-4485369Y+1303204D01*
X-4485369Y+1287116D01*
X-4494903Y+1276391D01*
X-4504436Y+1276391D01*
X-4513970Y+1287116D01*
X-4513970Y+1303204D01*
X-4509203Y+1308566D01*
X-4485369Y+1319292D02*
X-4513970Y+1319292D01*
X-4513970Y+1351467D02*
X-4485369Y+1351467D01*
X-4499670Y+1319292D02*
X-4499670Y+1351467D01*
X-4509203Y+1367555D02*
X-4513970Y+1372918D01*
X-4513970Y+1389006D01*
X-4509203Y+1394368D01*
X-4504436Y+1394368D01*
X-4499670Y+1389006D01*
X-4499670Y+1372918D01*
X-4494903Y+1367555D01*
X-4485369Y+1367555D01*
X-4485369Y+1394368D01*
D70*
X-4625400Y+1875680D02*
X-4373940Y+1875680D01*
X-4373940Y+2424320D01*
X-4625400Y+2424320D01*
X-4625400Y+1875680D01*
X-4373940Y+1875680D01*
X-4373940Y+2424320D01*
X-4625400Y+2424320D01*
X-4625400Y+1875680D01*
D28*
X-4500000Y+2050000D02*
X-4500000Y+2050000D01*
D29*
X-4490136Y+2104787D02*
X-4485369Y+2110149D01*
X-4485369Y+2131600D01*
X-4490136Y+2136962D01*
X-4494903Y+2136962D01*
X-4499670Y+2131600D01*
X-4499670Y+2110149D01*
X-4504436Y+2104787D01*
X-4509203Y+2104787D01*
X-4513970Y+2110149D01*
X-4513970Y+2131600D01*
X-4509203Y+2136962D01*
X-4513970Y+2147688D02*
X-4485369Y+2147688D01*
X-4499670Y+2163775D01*
X-4485369Y+2179863D01*
X-4513970Y+2179863D01*
X-4513970Y+2195951D02*
X-4513970Y+2217402D01*
X-4513970Y+2206676D02*
X-4485369Y+2206676D01*
X-4485369Y+2195951D02*
X-4485369Y+2217402D01*
X-4513970Y+2233490D02*
X-4513970Y+2265665D01*
X-4513970Y+2249577D02*
X-4485369Y+2249577D01*
X-4490136Y+2308566D02*
X-4485369Y+2303204D01*
X-4485369Y+2287116D01*
X-4494903Y+2276391D01*
X-4504436Y+2276391D01*
X-4513970Y+2287116D01*
X-4513970Y+2303204D01*
X-4509203Y+2308566D01*
X-4485369Y+2319292D02*
X-4513970Y+2319292D01*
X-4513970Y+2351467D02*
X-4485369Y+2351467D01*
X-4499670Y+2319292D02*
X-4499670Y+2351467D01*
X-4504436Y+2372918D02*
X-4513970Y+2383643D01*
X-4485369Y+2383643D01*
D18*
X+3549340Y+235840D02*
X+4141160Y+235840D01*
X+4141160Y+827660D01*
X+3549340Y+827660D01*
X+3549340Y+235840D01*
D72*
X+4004000Y+500000D02*
X+4004000Y+500000D01*
D73*
X+3813500Y+360300D02*
X+3699200Y+360300D01*
X+3699200Y+446025D01*
X+3737300Y+488887D01*
X+3775400Y+488887D01*
X+3813500Y+446025D01*
X+3813500Y+360300D01*
X+3737300Y+574612D02*
X+3699200Y+617475D01*
X+3813500Y+617475D01*
D18*
X+895100Y+2221100D02*
X+2088900Y+2221100D01*
X+2088900Y+2398900D01*
X+895100Y+2398900D01*
X+895100Y+2221100D01*
D26*
X+984000Y+2310000D02*
X+984000Y+2310000D01*
D30*
X+1455018Y+2276929D02*
X+1455018Y+2343070D01*
X+1517025Y+2343070D01*
X+1529427Y+2332047D01*
X+1529427Y+2321023D01*
X+1517025Y+2310000D01*
X+1455018Y+2310000D01*
X+1517025Y+2310000D02*
X+1529427Y+2298976D01*
X+1529427Y+2276929D01*
X+1579033Y+2321023D02*
X+1603836Y+2343070D01*
X+1603836Y+2276929D01*
D18*
X+1911100Y+951100D02*
X+2088900Y+951100D01*
X+2088900Y+2144900D01*
X+1911100Y+2144900D01*
X+1911100Y+951100D01*
D26*
X+2000000Y+1040000D02*
X+2000000Y+1040000D01*
D30*
X+2033071Y+1511018D02*
X+1966930Y+1511018D01*
X+1966930Y+1573025D01*
X+1977953Y+1585427D01*
X+1988977Y+1585427D01*
X+2000000Y+1573025D01*
X+2000000Y+1511018D01*
X+2000000Y+1573025D02*
X+2011024Y+1585427D01*
X+2033071Y+1585427D01*
X+1977953Y+1622631D02*
X+1966930Y+1635033D01*
X+1966930Y+1672237D01*
X+1977953Y+1684639D01*
X+1988977Y+1684639D01*
X+2000000Y+1672237D01*
X+2000000Y+1635033D01*
X+2011024Y+1622631D01*
X+2033071Y+1622631D01*
X+2033071Y+1684639D01*
D18*
X+1403100Y+951100D02*
X+1580900Y+951100D01*
X+1580900Y+2144900D01*
X+1403100Y+2144900D01*
X+1403100Y+951100D01*
D26*
X+1492000Y+1040000D02*
X+1492000Y+1040000D01*
D30*
X+1525071Y+1511018D02*
X+1458930Y+1511018D01*
X+1458930Y+1573025D01*
X+1469953Y+1585427D01*
X+1480977Y+1585427D01*
X+1492000Y+1573025D01*
X+1492000Y+1511018D01*
X+1492000Y+1573025D02*
X+1503024Y+1585427D01*
X+1525071Y+1585427D01*
X+1469953Y+1622631D02*
X+1458930Y+1635033D01*
X+1458930Y+1672237D01*
X+1469953Y+1684639D01*
X+1480977Y+1684639D01*
X+1492000Y+1672237D01*
X+1503024Y+1684639D01*
X+1514048Y+1684639D01*
X+1525071Y+1672237D01*
X+1525071Y+1635033D01*
X+1514048Y+1622631D01*
X+1492000Y+1647434D02*
X+1492000Y+1672237D01*
D18*
X+895100Y+2983100D02*
X+2088900Y+2983100D01*
X+2088900Y+3160900D01*
X+895100Y+3160900D01*
X+895100Y+2983100D01*
D26*
X+984000Y+3072000D02*
X+984000Y+3072000D01*
D30*
X+1455018Y+3038929D02*
X+1455018Y+3105070D01*
X+1517025Y+3105070D01*
X+1529427Y+3094047D01*
X+1529427Y+3083023D01*
X+1517025Y+3072000D01*
X+1455018Y+3072000D01*
X+1517025Y+3072000D02*
X+1529427Y+3060976D01*
X+1529427Y+3038929D01*
X+1628639Y+3060976D02*
X+1554230Y+3060976D01*
X+1603836Y+3105070D01*
X+1603836Y+3038929D01*
D18*
X+895100Y+2602100D02*
X+2088900Y+2602100D01*
X+2088900Y+2779900D01*
X+895100Y+2779900D01*
X+895100Y+2602100D01*
D26*
X+984000Y+2691000D02*
X+984000Y+2691000D01*
D30*
X+1455018Y+2657929D02*
X+1455018Y+2724070D01*
X+1517025Y+2724070D01*
X+1529427Y+2713047D01*
X+1529427Y+2702023D01*
X+1517025Y+2691000D01*
X+1455018Y+2691000D01*
X+1517025Y+2691000D02*
X+1529427Y+2679976D01*
X+1529427Y+2657929D01*
X+1628639Y+2724070D02*
X+1566631Y+2724070D01*
X+1566631Y+2702023D01*
X+1616237Y+2702023D01*
X+1628639Y+2691000D01*
X+1628639Y+2668952D01*
X+1616237Y+2657929D01*
X+1579033Y+2657929D01*
X+1566631Y+2668952D01*
D18*
X+2292100Y+951100D02*
X+2469900Y+951100D01*
X+2469900Y+2144900D01*
X+2292100Y+2144900D01*
X+2292100Y+951100D01*
D26*
X+2381000Y+1040000D02*
X+2381000Y+1040000D01*
D30*
X+2414071Y+1511018D02*
X+2347930Y+1511018D01*
X+2347930Y+1573025D01*
X+2358953Y+1585427D01*
X+2369977Y+1585427D01*
X+2381000Y+1573025D01*
X+2381000Y+1511018D01*
X+2381000Y+1573025D02*
X+2392024Y+1585427D01*
X+2414071Y+1585427D01*
X+2358953Y+1684639D02*
X+2347930Y+1672237D01*
X+2347930Y+1635033D01*
X+2358953Y+1622631D01*
X+2403048Y+1622631D01*
X+2414071Y+1635033D01*
X+2414071Y+1672237D01*
X+2403048Y+1684639D01*
X+2392024Y+1684639D01*
X+2381000Y+1672237D01*
X+2381000Y+1622631D01*
M02*
